<svg width="24" height="24" viewBox="0 0 24 24" fill="none" xmlns="http://www.w3.org/2000/svg">
<path id="Vector" fill-rule="evenodd" clip-rule="evenodd" d="M11.9997 1.7561C11.2642 1.7561 10.5588 2.03362 10.0387 2.52762C9.51864 3.02162 9.22647 3.69162 9.22647 4.39024V4.68761C9.74085 4.68371 10.2975 4.68215 10.8966 4.68293H13.1028C13.7026 4.68215 14.2593 4.68371 14.7729 4.68761V4.39024C14.7729 3.69162 14.4807 3.02162 13.9606 2.52762C13.4405 2.03362 12.7352 1.7561 11.9997 1.7561ZM16.6217 4.74966V4.39024C16.6217 3.22588 16.1347 2.1092 15.2679 1.28587C14.4011 0.462542 13.2255 0 11.9997 0C10.7738 0 9.59821 0.462542 8.73142 1.28587C7.86463 2.1092 7.37767 3.22588 7.37767 4.39024V4.74966C7.21169 4.76059 7.05105 4.77424 6.89575 4.79063C5.81358 4.90185 4.90767 5.13366 4.10406 5.65698C3.82836 5.83795 3.56867 6.03999 3.32756 6.26107C2.62995 6.90732 2.21212 7.70576 1.8855 8.69151C1.56873 9.65034 1.31237 10.8679 0.989443 12.398L0.966025 12.5093C0.502592 14.7138 0.13653 16.4511 0.0317642 17.8349C-0.0766988 19.2492 0.0736703 20.4375 0.77868 21.4689C1.01533 21.8139 1.28813 22.13 1.59708 22.4172C2.52395 23.2765 3.72197 23.6488 5.20224 23.8267C6.6517 24 8.51776 24 10.8842 24H13.1151C15.4828 24 17.3476 24 18.7971 23.8267C20.2774 23.6488 21.4766 23.2765 22.4023 22.4172C22.7107 22.1304 22.9851 21.8124 23.2207 21.4689C23.9257 20.4386 24.076 19.2492 23.9688 17.8349C23.8628 16.4511 23.498 14.7138 23.0321 12.5093L23.0099 12.398C22.6882 10.8679 22.4306 9.65034 22.1138 8.69151C21.7872 7.70576 21.3694 6.90732 20.6718 6.26107C20.4307 6.03999 20.171 5.83795 19.8953 5.65698C19.0917 5.13366 18.1858 4.90185 17.1036 4.79063C16.9436 4.77427 16.7834 4.76061 16.6229 4.74966M7.09419 6.5362C6.17348 6.62985 5.60528 6.80898 5.14925 7.10517C4.96018 7.22883 4.78247 7.36747 4.61802 7.51961C4.22238 7.88605 3.9278 8.3801 3.64925 9.21834C3.36577 10.0765 3.12666 11.2004 2.79264 12.7914C2.31195 15.072 1.97054 16.7017 1.87564 17.9614C1.78073 19.2047 1.93973 19.9434 2.32921 20.5124C2.49026 20.7481 2.67678 20.9643 2.88878 21.161C3.40028 21.6351 4.13117 21.9278 5.43396 22.0847C6.75277 22.2427 8.50297 22.2439 10.9508 22.2439H13.0498C15.4976 22.2439 17.2453 22.2427 18.5654 22.0847C19.8682 21.9278 20.5991 21.6351 21.1106 21.161C21.3213 20.9647 21.5089 20.7472 21.6701 20.5124C22.0596 19.9434 22.2186 19.2047 22.1249 17.9602C22.0288 16.7005 21.6874 15.072 21.2079 12.7914C20.8727 11.2004 20.6348 10.0753 20.3501 9.21834C20.0728 8.3801 19.777 7.88605 19.3813 7.51961C19.2186 7.36615 19.0411 7.22741 18.8513 7.10517C18.3953 6.80898 17.8259 6.63102 16.9052 6.5362C15.9647 6.4402 14.7568 6.43902 13.0486 6.43902H10.952C9.24372 6.43902 8.03584 6.4402 7.09419 6.5362ZM8.2047 15.2699C8.43581 15.1923 8.6899 15.205 8.9111 15.3054C9.1323 15.4057 9.30248 15.5854 9.38423 15.8049C9.57561 16.3185 9.92987 16.7631 10.3982 17.0776C10.8666 17.392 11.4261 17.5609 11.9997 17.5609C12.5732 17.5609 13.1327 17.392 13.6011 17.0776C14.0695 16.7631 14.4237 16.3185 14.6151 15.8049C14.6556 15.6961 14.7182 15.596 14.7994 15.5102C14.8806 15.4244 14.9788 15.3546 15.0884 15.3049C15.198 15.2552 15.3168 15.2264 15.4381 15.2203C15.5594 15.2142 15.6807 15.2308 15.7953 15.2693C15.9098 15.3077 16.0152 15.3672 16.1055 15.4443C16.1958 15.5215 16.2693 15.6147 16.3216 15.7188C16.374 15.8229 16.4042 15.9358 16.4107 16.051C16.4171 16.1662 16.3996 16.2815 16.3591 16.3902C16.0405 17.2464 15.4502 17.9877 14.6695 18.5121C13.8889 19.0364 12.9564 19.3179 12.0003 19.3179C11.0442 19.3179 10.1117 19.0364 9.33103 18.5121C8.5504 17.9877 7.9601 17.2464 7.64143 16.3902C7.55974 16.1707 7.57319 15.9294 7.67882 15.7193C7.78445 15.5092 7.97361 15.3475 8.2047 15.2699Z" fill="black"/>
</svg>
