<svg width="24" height="24" viewBox="0 0 24 24" fill="none" xmlns="http://www.w3.org/2000/svg">
<g id="Icons - primary">
<path id="Vector" d="M15.0001 17C14.2006 17.6224 13.1503 18 12.0001 18C10.8498 18 9.79965 17.6224 9.00012 17" stroke="#63738A" stroke-width="1.5" stroke-linecap="round"/>
<path id="Vector_2" d="M2.35151 13.2135C1.99849 10.9162 1.82198 9.76763 2.25629 8.74938C2.69059 7.73112 3.65415 7.03443 5.58126 5.64106L7.02111 4.6C9.41841 2.86667 10.617 2 12.0001 2C13.3831 2 14.5818 2.86667 16.9791 4.6L18.4189 5.64106C20.3461 7.03443 21.3096 7.73112 21.7439 8.74938C22.1782 9.76763 22.0017 10.9162 21.6487 13.2135L21.3477 15.1724C20.8472 18.4289 20.597 20.0572 19.4291 21.0286C18.2612 22 16.5537 22 13.1389 22H10.8613C7.44646 22 5.73903 22 4.57112 21.0286C3.40321 20.0572 3.15299 18.4289 2.65255 15.1724L2.35151 13.2135Z" stroke="#63738A" stroke-width="1.5" stroke-linejoin="round"/>
</g>
</svg>
