<svg width="26" height="26" viewBox="0 0 26 26" fill="none" xmlns="http://www.w3.org/2000/svg">
<g id="Group">
<path id="Vector" d="M13 25C19.6274 25 25 19.6274 25 13C25 6.37258 19.6274 1 13 1C6.37258 1 1 6.37258 1 13C1 19.6274 6.37258 25 13 25Z" stroke="black" stroke-width="1.5" stroke-linecap="round" stroke-linejoin="round"/>
<path id="Vector_2" d="M7.59998 19C10.3984 16.0696 15.5716 15.9316 18.4 19M15.994 10C15.994 11.656 14.65 13 12.9904 13C12.596 13.0006 12.2054 12.9235 11.8409 12.773C11.4763 12.6225 11.145 12.4017 10.866 12.123C10.5869 11.8444 10.3655 11.5135 10.2144 11.1492C10.0633 10.7849 9.98558 10.3944 9.98558 10C9.98558 8.344 11.3296 7 12.9904 7C13.3846 6.99953 13.7751 7.07678 14.1395 7.22733C14.5039 7.37788 14.8351 7.59879 15.114 7.87741C15.393 8.15603 15.6143 8.48691 15.7653 8.85112C15.9163 9.21533 15.994 9.60573 15.994 10Z" stroke="black" stroke-width="1.5" stroke-linecap="round" stroke-linejoin="round"/>
</g>
</svg>
